<?xml version="1.0" encoding="UTF-8" standalone="no"?>
<svg xmlns="http://www.w3.org/2000/svg" width="1254" height="1254" viewBox="0 0 1254 1254" version="1.1">
  <path d="M 459 563 L 461 567 L 468 572 L 471 571 L 476 575 L 476 578 L 481 580 L 485 585 L 493 587 L 493 590 L 497 590 L 503 597 L 507 597 L 511 601 L 525 606 L 526 608 L 532 606 L 528 597 L 525 597 L 498 580 L 471 568 L 469 565 L 466 566 Z M 711 501 L 707 506 L 704 506 L 701 509 L 698 516 L 693 518 L 691 527 L 685 532 L 682 540 L 668 556 L 658 573 L 657 578 L 665 572 L 677 558 L 703 519 L 711 504 Z M 623 492 L 621 493 L 622 504 L 620 505 L 620 522 L 618 525 L 619 559 L 617 561 L 620 572 L 622 572 L 623 569 L 622 564 L 624 563 L 626 557 L 627 547 L 624 542 L 624 534 L 626 533 L 624 522 L 626 521 L 625 506 L 623 505 L 625 497 Z M 528 491 L 528 495 L 531 497 L 536 509 L 535 512 L 538 514 L 543 526 L 542 529 L 547 535 L 547 541 L 557 556 L 564 571 L 570 575 L 572 572 L 570 567 L 572 565 L 568 560 L 569 558 L 564 554 L 565 552 L 561 545 L 562 542 L 557 537 L 557 533 L 554 532 L 555 530 L 551 522 L 546 518 L 544 510 L 539 506 L 533 497 L 532 492 Z M 0 0 L 0 1253 L 1253 1253 L 1253 0 Z M 83 728 L 75 733 L 69 731 L 69 727 L 76 722 Z M 1199 717 L 1204 720 L 1202 724 L 1197 720 Z M 698 644 L 700 645 L 699 649 L 697 648 Z M 743 614 L 732 624 L 729 624 L 725 628 L 714 633 L 708 633 L 703 627 L 704 622 L 712 614 L 730 603 L 733 607 L 718 619 L 728 619 L 736 614 Z M 465 605 L 469 603 L 482 611 L 497 612 L 498 614 L 500 613 L 506 618 L 513 619 L 519 624 L 522 624 L 523 627 L 527 629 L 528 634 L 524 635 L 526 636 L 525 638 L 518 638 L 517 636 L 514 637 L 513 635 L 511 636 L 503 629 L 496 628 L 475 616 L 473 613 L 466 611 Z M 733 602 L 737 601 L 738 603 L 734 604 Z M 746 596 L 748 595 L 749 598 L 747 599 Z M 735 590 L 737 595 L 726 604 L 709 614 L 698 614 L 699 608 L 702 604 L 715 599 L 720 594 L 723 595 L 725 591 L 727 592 L 731 589 Z M 628 588 L 630 587 L 631 589 L 629 590 Z M 699 640 L 698 642 L 696 641 L 696 650 L 688 655 L 659 666 L 639 671 L 638 673 L 635 672 L 621 675 L 619 673 L 607 673 L 606 671 L 602 672 L 601 670 L 603 669 L 597 671 L 596 669 L 583 666 L 574 666 L 568 661 L 565 664 L 564 662 L 541 656 L 538 653 L 532 653 L 530 646 L 530 637 L 532 636 L 533 638 L 533 632 L 538 627 L 537 625 L 539 621 L 543 620 L 545 614 L 552 611 L 558 604 L 561 604 L 564 600 L 569 599 L 576 594 L 579 595 L 586 593 L 588 589 L 590 592 L 592 588 L 596 589 L 597 587 L 602 588 L 603 586 L 618 585 L 623 586 L 621 589 L 618 589 L 634 589 L 635 591 L 645 590 L 646 592 L 668 601 L 668 604 L 671 606 L 674 605 L 679 609 L 679 612 L 681 611 L 684 614 L 684 618 L 688 620 L 687 622 L 694 630 L 694 635 Z M 702 578 L 703 580 L 697 584 L 696 582 Z M 829 564 L 824 569 L 790 588 L 754 611 L 747 611 L 751 604 L 760 600 L 759 598 L 763 596 L 764 593 L 756 593 L 763 587 L 766 587 L 783 577 L 786 578 L 788 575 L 792 575 L 796 571 L 799 572 L 801 569 L 804 570 L 806 567 L 809 568 L 810 564 L 816 565 L 818 561 L 820 562 L 826 560 Z M 518 560 L 523 559 L 534 564 L 547 576 L 547 579 L 553 583 L 555 586 L 555 591 L 550 594 L 549 592 L 541 589 L 537 585 L 534 578 L 532 579 L 523 568 L 523 565 L 519 563 Z M 706 557 L 707 561 L 703 564 L 704 566 L 680 590 L 673 592 L 670 596 L 668 596 L 667 589 L 676 576 L 687 569 L 696 557 L 700 555 Z M 701 554 L 703 553 L 704 555 L 702 556 Z M 422 545 L 426 545 L 427 541 L 429 540 L 436 546 L 439 545 L 441 548 L 444 547 L 452 553 L 455 552 L 466 557 L 472 562 L 480 563 L 489 567 L 491 570 L 497 571 L 500 575 L 502 574 L 504 577 L 506 576 L 508 579 L 513 582 L 517 582 L 519 585 L 522 584 L 524 587 L 529 588 L 534 594 L 539 596 L 540 601 L 543 604 L 543 609 L 541 610 L 543 613 L 537 620 L 529 620 L 522 614 L 508 609 L 496 601 L 482 588 L 474 584 L 473 581 L 471 582 L 443 563 Z M 779 525 L 769 539 L 767 539 L 733 573 L 725 577 L 715 588 L 710 589 L 702 599 L 687 608 L 680 607 L 681 605 L 679 604 L 679 599 L 689 586 L 696 587 L 690 594 L 691 596 L 708 584 L 712 576 L 706 579 L 704 575 L 707 572 L 714 570 L 715 567 L 718 567 L 725 559 L 732 556 L 733 553 L 738 552 L 752 537 L 755 538 L 757 534 L 764 531 L 764 529 L 768 528 L 769 525 Z M 583 522 L 589 527 L 600 556 L 601 567 L 596 572 L 589 568 L 586 561 L 587 556 L 584 553 L 585 548 L 580 543 L 581 540 L 577 529 L 579 528 L 580 530 L 579 526 Z M 721 481 L 724 484 L 724 490 L 722 491 L 723 494 L 717 501 L 717 508 L 713 512 L 714 515 L 709 521 L 706 531 L 703 532 L 704 534 L 702 538 L 692 549 L 690 555 L 685 558 L 686 560 L 677 567 L 676 573 L 664 584 L 661 584 L 659 588 L 654 591 L 649 591 L 645 587 L 645 579 L 655 561 L 656 556 L 667 545 L 667 542 L 679 525 L 708 491 L 708 489 L 713 484 Z M 523 471 L 528 472 L 534 479 L 533 481 L 540 488 L 539 490 L 542 491 L 548 502 L 548 506 L 551 507 L 550 510 L 556 516 L 565 534 L 564 536 L 568 539 L 579 562 L 583 579 L 581 585 L 576 589 L 572 590 L 564 585 L 563 580 L 559 578 L 560 575 L 557 574 L 553 567 L 554 564 L 551 563 L 547 554 L 547 548 L 540 539 L 541 536 L 537 532 L 538 529 L 535 527 L 536 524 L 533 523 L 534 519 L 531 518 L 525 501 L 526 496 L 522 492 L 524 490 L 519 484 L 520 475 Z M 619 454 L 624 457 L 627 471 L 629 473 L 628 483 L 630 485 L 628 486 L 628 498 L 632 502 L 630 521 L 630 517 L 632 516 L 632 537 L 634 539 L 631 543 L 630 560 L 633 563 L 631 570 L 633 570 L 633 564 L 637 559 L 646 535 L 648 533 L 655 533 L 658 537 L 658 544 L 656 545 L 655 542 L 655 546 L 657 548 L 655 550 L 656 553 L 646 568 L 643 576 L 636 580 L 630 572 L 629 578 L 624 585 L 617 585 L 614 582 L 610 574 L 611 565 L 607 562 L 607 548 L 609 547 L 608 539 L 610 538 L 611 534 L 610 514 L 612 513 L 611 502 L 613 501 L 613 480 L 616 480 L 614 461 Z" fill="#e9aa00" fill-rule="evenodd"/>
  <path d="M 79 721 L 68 728 L 71 733 L 84 728 L 79 726 Z M 1195 721 L 1206 724 L 1204 723 L 1205 719 L 1200 716 L 1198 720 Z M 462 606 L 465 611 L 500 630 L 503 628 L 511 635 L 517 635 L 518 637 L 525 637 L 528 635 L 528 630 L 526 627 L 514 619 L 512 620 L 511 618 L 508 620 L 505 618 L 506 616 L 504 617 L 503 615 L 501 616 L 497 613 L 494 614 L 493 612 L 491 613 L 487 610 L 486 612 L 482 612 L 481 610 L 484 609 L 479 609 L 478 607 L 476 608 L 475 606 L 473 607 L 469 604 L 464 604 Z M 471 613 L 473 612 L 474 614 L 472 615 Z M 741 597 L 739 598 L 742 602 L 744 601 Z M 735 587 L 734 590 L 731 590 L 730 588 L 724 593 L 706 602 L 695 611 L 699 608 L 699 614 L 707 614 L 708 617 L 703 623 L 704 630 L 706 629 L 708 631 L 707 633 L 716 633 L 716 630 L 718 632 L 719 629 L 723 629 L 740 619 L 739 617 L 742 614 L 739 615 L 738 613 L 733 617 L 729 617 L 728 620 L 726 618 L 725 620 L 719 619 L 724 612 L 735 606 L 732 606 L 732 603 L 736 603 L 737 605 L 740 603 L 736 598 L 738 590 Z M 709 614 L 711 613 L 712 615 L 710 616 Z M 716 609 L 718 608 L 719 611 L 717 612 Z M 732 599 L 734 598 L 735 600 L 733 601 Z M 734 590 L 736 589 L 737 591 L 735 592 Z M 829 560 L 824 560 L 823 562 L 818 562 L 815 565 L 810 565 L 803 570 L 801 569 L 787 577 L 785 576 L 770 583 L 769 585 L 767 584 L 756 589 L 752 593 L 750 592 L 743 596 L 746 597 L 746 600 L 750 598 L 748 596 L 750 593 L 753 595 L 752 597 L 755 594 L 760 594 L 761 592 L 765 593 L 756 603 L 748 607 L 747 612 L 744 612 L 746 612 L 747 615 L 748 612 L 750 613 L 751 611 L 754 611 L 773 598 L 804 581 L 806 578 L 809 578 L 823 570 L 829 565 Z M 753 592 L 756 591 L 757 593 L 754 594 Z M 827 562 L 829 561 L 830 563 L 828 564 Z M 517 559 L 521 566 L 521 563 L 524 565 L 523 567 L 525 571 L 542 590 L 546 592 L 548 591 L 549 593 L 556 590 L 552 581 L 549 578 L 547 580 L 547 577 L 533 563 L 523 557 L 519 557 Z M 582 523 L 578 528 L 578 532 L 580 533 L 580 540 L 583 544 L 582 547 L 585 547 L 583 551 L 585 552 L 584 554 L 588 556 L 586 561 L 590 566 L 589 568 L 594 574 L 597 574 L 594 574 L 593 572 L 599 570 L 599 573 L 601 570 L 600 555 L 597 551 L 598 549 L 596 548 L 597 546 L 595 545 L 596 543 L 594 542 L 595 540 L 593 539 L 594 537 L 592 536 L 593 534 L 589 526 Z M 779 522 L 777 523 L 776 521 L 775 523 L 773 522 L 740 549 L 735 551 L 723 562 L 714 567 L 714 571 L 710 570 L 698 578 L 699 580 L 693 588 L 691 585 L 682 593 L 683 595 L 680 596 L 680 600 L 678 601 L 679 606 L 688 608 L 705 597 L 709 593 L 707 594 L 706 592 L 710 588 L 713 589 L 712 591 L 722 582 L 723 579 L 725 580 L 725 577 L 728 577 L 780 526 Z M 711 578 L 711 580 L 697 593 L 692 593 L 697 583 L 701 581 L 702 583 L 700 585 L 703 580 L 705 581 L 709 577 Z M 523 471 L 519 476 L 519 480 L 521 481 L 520 485 L 522 486 L 522 493 L 539 538 L 542 540 L 541 542 L 561 581 L 562 579 L 564 580 L 563 584 L 568 589 L 575 590 L 582 584 L 581 582 L 583 581 L 583 573 L 581 572 L 582 569 L 578 563 L 579 561 L 541 489 L 533 477 L 527 471 Z M 533 499 L 536 501 L 553 529 L 569 562 L 572 563 L 570 565 L 573 572 L 570 576 L 566 571 L 563 571 L 564 568 L 558 561 L 542 523 L 538 518 L 539 516 L 532 501 Z M 423 543 L 424 548 L 428 552 L 478 587 L 480 586 L 482 590 L 495 598 L 508 609 L 515 613 L 516 611 L 523 614 L 521 616 L 526 618 L 528 617 L 529 619 L 537 619 L 540 616 L 542 617 L 542 620 L 535 628 L 530 640 L 530 650 L 528 652 L 532 656 L 538 655 L 558 662 L 584 667 L 592 672 L 598 670 L 627 675 L 673 662 L 699 650 L 699 644 L 697 643 L 698 640 L 696 639 L 697 636 L 691 624 L 677 608 L 671 604 L 669 605 L 668 602 L 665 601 L 665 598 L 668 598 L 667 596 L 673 592 L 675 593 L 688 582 L 689 579 L 692 579 L 706 564 L 707 556 L 704 557 L 703 555 L 705 554 L 702 554 L 693 560 L 674 579 L 671 586 L 667 588 L 667 596 L 663 599 L 658 596 L 656 597 L 648 591 L 655 591 L 658 587 L 660 588 L 661 583 L 665 584 L 677 571 L 676 567 L 679 564 L 681 566 L 680 567 L 693 551 L 692 548 L 697 546 L 716 511 L 721 498 L 720 495 L 722 494 L 721 491 L 723 490 L 723 483 L 718 481 L 697 502 L 697 504 L 692 508 L 692 510 L 688 513 L 666 543 L 667 545 L 663 547 L 664 549 L 661 550 L 662 552 L 656 557 L 655 562 L 650 563 L 649 561 L 653 558 L 655 553 L 654 550 L 656 549 L 655 546 L 657 544 L 657 537 L 654 532 L 649 532 L 645 537 L 646 539 L 643 540 L 643 547 L 640 547 L 640 552 L 638 553 L 639 555 L 636 559 L 637 561 L 633 564 L 630 556 L 630 543 L 633 539 L 631 537 L 631 502 L 627 498 L 627 486 L 629 485 L 629 482 L 627 481 L 628 473 L 626 471 L 627 467 L 625 466 L 626 462 L 623 455 L 618 454 L 616 457 L 617 459 L 615 460 L 616 475 L 614 476 L 615 488 L 613 490 L 614 500 L 612 501 L 613 512 L 611 513 L 612 526 L 610 527 L 610 530 L 612 531 L 612 534 L 609 538 L 610 547 L 608 548 L 608 565 L 609 563 L 612 565 L 612 569 L 610 570 L 609 568 L 609 571 L 611 572 L 610 575 L 618 586 L 603 587 L 602 589 L 597 588 L 596 590 L 592 589 L 591 591 L 585 591 L 584 594 L 582 592 L 581 594 L 576 594 L 555 606 L 544 616 L 542 615 L 542 611 L 544 610 L 542 600 L 535 592 L 533 594 L 532 590 L 520 583 L 518 584 L 515 581 L 513 583 L 507 579 L 508 577 L 478 562 L 476 563 L 475 561 L 440 546 L 430 540 L 426 540 Z M 696 649 L 698 648 L 699 650 L 697 651 Z M 683 617 L 685 616 L 686 618 L 684 619 Z M 526 597 L 528 596 L 529 598 L 527 599 Z M 630 572 L 633 573 L 632 577 L 635 580 L 640 579 L 644 575 L 646 576 L 645 591 L 642 592 L 640 590 L 636 592 L 635 590 L 637 589 L 623 589 L 624 587 L 622 585 L 627 582 Z M 619 571 L 622 570 L 623 572 L 620 573 Z M 465 567 L 467 566 L 478 572 L 480 571 L 481 573 L 516 590 L 526 597 L 531 603 L 531 607 L 526 609 L 525 606 L 523 607 L 522 605 L 514 603 L 501 595 L 488 584 L 488 587 L 483 584 L 485 582 L 486 583 L 469 572 Z M 631 565 L 634 566 L 633 571 L 630 570 Z M 650 565 L 652 564 L 653 566 L 651 567 Z M 649 564 L 650 566 L 646 570 L 645 568 Z M 461 564 L 463 563 L 464 566 L 462 567 Z M 708 505 L 709 507 L 701 520 L 702 522 L 698 524 L 681 552 L 678 554 L 678 558 L 674 560 L 675 562 L 672 563 L 672 565 L 660 577 L 658 577 L 657 575 L 669 554 L 675 550 L 680 541 L 683 539 L 684 535 L 696 520 L 692 522 L 692 518 L 696 515 L 698 517 L 700 515 L 700 511 Z M 622 493 L 626 495 L 624 506 L 626 507 L 625 542 L 628 547 L 627 557 L 625 558 L 624 555 L 624 567 L 619 570 L 619 565 L 616 561 L 618 559 L 617 525 L 619 522 L 619 505 L 621 504 L 620 494 Z" fill="#c0c0c0" fill-rule="evenodd"/>
</svg>